<mxfile host="app.diagrams.net" agent="Mozilla/5.0 (Macintosh; Intel Mac OS X 10_15_7) AppleWebKit/537.36 (KHTML, like Gecko) Chrome/131.0.0.0 Safari/537.36" version="26.1.0">
  <diagram name="第 1 页" id="gZgAmFKpxZBu3X9zqZIZ">
    <mxGraphModel dx="1242" dy="741" grid="0" gridSize="10" guides="1" tooltips="1" connect="1" arrows="1" fold="1" page="0" pageScale="1" pageWidth="827" pageHeight="1169" background="#ffffff" math="0" shadow="0">
      <root>
        <mxCell id="0" />
        <mxCell id="1" parent="0" />
        <mxCell id="lL_hGsbF8cm2hy9hKI8q-1" value="" style="edgeStyle=orthogonalEdgeStyle;rounded=0;orthogonalLoop=1;jettySize=auto;html=1;" edge="1" parent="1" source="lL_hGsbF8cm2hy9hKI8q-2" target="lL_hGsbF8cm2hy9hKI8q-9">
          <mxGeometry relative="1" as="geometry" />
        </mxCell>
        <mxCell id="lL_hGsbF8cm2hy9hKI8q-2" value="Migrate&amp;nbsp;&lt;div&gt;Rancher&amp;nbsp;&lt;/div&gt;&lt;div&gt;Start&lt;/div&gt;" style="strokeWidth=2;html=1;shape=mxgraph.flowchart.start_1;whiteSpace=wrap;fillColor=light-dark(#D4D4D4,var(--ge-dark-color, #121212));" vertex="1" parent="1">
          <mxGeometry x="240" y="50" width="100" height="60" as="geometry" />
        </mxCell>
        <mxCell id="lL_hGsbF8cm2hy9hKI8q-3" value="" style="edgeStyle=orthogonalEdgeStyle;rounded=0;orthogonalLoop=1;jettySize=auto;html=1;" edge="1" parent="1" source="lL_hGsbF8cm2hy9hKI8q-7" target="lL_hGsbF8cm2hy9hKI8q-11">
          <mxGeometry relative="1" as="geometry" />
        </mxCell>
        <mxCell id="lL_hGsbF8cm2hy9hKI8q-4" value="Yes" style="edgeLabel;html=1;align=center;verticalAlign=middle;resizable=0;points=[];" vertex="1" connectable="0" parent="lL_hGsbF8cm2hy9hKI8q-3">
          <mxGeometry x="-0.2203" relative="1" as="geometry">
            <mxPoint as="offset" />
          </mxGeometry>
        </mxCell>
        <mxCell id="lL_hGsbF8cm2hy9hKI8q-5" value="" style="edgeStyle=orthogonalEdgeStyle;rounded=0;orthogonalLoop=1;jettySize=auto;html=1;" edge="1" parent="1" source="lL_hGsbF8cm2hy9hKI8q-7" target="lL_hGsbF8cm2hy9hKI8q-19">
          <mxGeometry relative="1" as="geometry" />
        </mxCell>
        <mxCell id="lL_hGsbF8cm2hy9hKI8q-6" value="No" style="edgeLabel;html=1;align=center;verticalAlign=middle;resizable=0;points=[];" vertex="1" connectable="0" parent="lL_hGsbF8cm2hy9hKI8q-5">
          <mxGeometry x="-0.2349" y="-1" relative="1" as="geometry">
            <mxPoint x="1" as="offset" />
          </mxGeometry>
        </mxCell>
        <mxCell id="lL_hGsbF8cm2hy9hKI8q-7" value="Rancher Backup&amp;nbsp;&lt;div&gt;Chart Installed&lt;/div&gt;" style="strokeWidth=2;html=1;shape=mxgraph.flowchart.decision;whiteSpace=wrap;" vertex="1" parent="1">
          <mxGeometry x="210.5" y="252" width="159" height="70" as="geometry" />
        </mxCell>
        <mxCell id="lL_hGsbF8cm2hy9hKI8q-8" value="" style="edgeStyle=orthogonalEdgeStyle;rounded=0;orthogonalLoop=1;jettySize=auto;html=1;" edge="1" parent="1" source="lL_hGsbF8cm2hy9hKI8q-9" target="lL_hGsbF8cm2hy9hKI8q-7">
          <mxGeometry relative="1" as="geometry" />
        </mxCell>
        <mxCell id="lL_hGsbF8cm2hy9hKI8q-9" value="Backup current local RKE cluster" style="rounded=1;whiteSpace=wrap;html=1;absoluteArcSize=1;arcSize=14;strokeWidth=2;" vertex="1" parent="1">
          <mxGeometry x="220" y="157" width="140" height="50" as="geometry" />
        </mxCell>
        <mxCell id="lL_hGsbF8cm2hy9hKI8q-10" value="" style="edgeStyle=orthogonalEdgeStyle;rounded=0;orthogonalLoop=1;jettySize=auto;html=1;" edge="1" parent="1" source="lL_hGsbF8cm2hy9hKI8q-11" target="lL_hGsbF8cm2hy9hKI8q-14">
          <mxGeometry relative="1" as="geometry" />
        </mxCell>
        <mxCell id="lL_hGsbF8cm2hy9hKI8q-11" value="Create Rancher Backup" style="rounded=1;whiteSpace=wrap;html=1;absoluteArcSize=1;arcSize=14;strokeWidth=2;" vertex="1" parent="1">
          <mxGeometry x="217.5" y="381" width="145" height="70" as="geometry" />
        </mxCell>
        <mxCell id="lL_hGsbF8cm2hy9hKI8q-12" value="" style="edgeStyle=orthogonalEdgeStyle;rounded=0;orthogonalLoop=1;jettySize=auto;html=1;" edge="1" parent="1" source="lL_hGsbF8cm2hy9hKI8q-14" target="lL_hGsbF8cm2hy9hKI8q-18">
          <mxGeometry relative="1" as="geometry" />
        </mxCell>
        <mxCell id="lL_hGsbF8cm2hy9hKI8q-13" value="Yes" style="edgeLabel;html=1;align=center;verticalAlign=middle;resizable=0;points=[];" vertex="1" connectable="0" parent="lL_hGsbF8cm2hy9hKI8q-12">
          <mxGeometry x="-0.125" y="2" relative="1" as="geometry">
            <mxPoint as="offset" />
          </mxGeometry>
        </mxCell>
        <mxCell id="lL_hGsbF8cm2hy9hKI8q-14" value="Success" style="strokeWidth=2;html=1;shape=mxgraph.flowchart.decision;whiteSpace=wrap;" vertex="1" parent="1">
          <mxGeometry x="240" y="496" width="100" height="70" as="geometry" />
        </mxCell>
        <mxCell id="lL_hGsbF8cm2hy9hKI8q-15" value="" style="edgeStyle=orthogonalEdgeStyle;rounded=0;orthogonalLoop=1;jettySize=auto;html=1;" edge="1" parent="1" source="lL_hGsbF8cm2hy9hKI8q-16" target="lL_hGsbF8cm2hy9hKI8q-33">
          <mxGeometry relative="1" as="geometry" />
        </mxCell>
        <mxCell id="lL_hGsbF8cm2hy9hKI8q-16" value="Restore Rancher on RKE2 local cluster" style="rounded=1;whiteSpace=wrap;html=1;absoluteArcSize=1;arcSize=14;strokeWidth=2;" vertex="1" parent="1">
          <mxGeometry x="190" y="970" width="200" height="50" as="geometry" />
        </mxCell>
        <mxCell id="lL_hGsbF8cm2hy9hKI8q-17" value="" style="edgeStyle=orthogonalEdgeStyle;rounded=0;orthogonalLoop=1;jettySize=auto;html=1;" edge="1" parent="1" source="lL_hGsbF8cm2hy9hKI8q-18" target="lL_hGsbF8cm2hy9hKI8q-29">
          <mxGeometry relative="1" as="geometry" />
        </mxCell>
        <mxCell id="lL_hGsbF8cm2hy9hKI8q-18" value="RKE2 local cluster&lt;div&gt;(same version with&amp;nbsp;&lt;/div&gt;&lt;div&gt;RKE1 local cluster)&lt;/div&gt;" style="rounded=1;whiteSpace=wrap;html=1;absoluteArcSize=1;arcSize=14;strokeWidth=2;" vertex="1" parent="1">
          <mxGeometry x="220" y="614" width="140" height="50" as="geometry" />
        </mxCell>
        <mxCell id="lL_hGsbF8cm2hy9hKI8q-19" value="Install Rancher Backup&lt;div&gt;Chart in App Store&lt;/div&gt;" style="rounded=1;whiteSpace=wrap;html=1;absoluteArcSize=1;arcSize=14;strokeWidth=2;" vertex="1" parent="1">
          <mxGeometry x="444" y="262" width="140" height="50" as="geometry" />
        </mxCell>
        <mxCell id="lL_hGsbF8cm2hy9hKI8q-20" value="" style="edgeStyle=segmentEdgeStyle;endArrow=classic;html=1;curved=0;rounded=0;endSize=8;startSize=8;exitX=0.5;exitY=1;exitDx=0;exitDy=0;entryX=1;entryY=0.5;entryDx=0;entryDy=0;" edge="1" parent="1" source="lL_hGsbF8cm2hy9hKI8q-19" target="lL_hGsbF8cm2hy9hKI8q-11">
          <mxGeometry width="50" height="50" relative="1" as="geometry">
            <mxPoint x="493" y="408" as="sourcePoint" />
            <mxPoint x="465" y="417" as="targetPoint" />
            <Array as="points">
              <mxPoint x="514" y="416" />
            </Array>
          </mxGeometry>
        </mxCell>
        <mxCell id="lL_hGsbF8cm2hy9hKI8q-21" value="" style="edgeStyle=segmentEdgeStyle;endArrow=classic;html=1;curved=0;rounded=0;endSize=8;startSize=8;exitX=1;exitY=0.5;exitDx=0;exitDy=0;exitPerimeter=0;entryX=1;entryY=0.75;entryDx=0;entryDy=0;" edge="1" parent="1" source="lL_hGsbF8cm2hy9hKI8q-14" target="lL_hGsbF8cm2hy9hKI8q-11">
          <mxGeometry width="50" height="50" relative="1" as="geometry">
            <mxPoint x="380" y="532" as="sourcePoint" />
            <mxPoint x="430" y="482" as="targetPoint" />
            <Array as="points">
              <mxPoint x="340" y="529" />
              <mxPoint x="425" y="529" />
              <mxPoint x="425" y="434" />
            </Array>
          </mxGeometry>
        </mxCell>
        <mxCell id="lL_hGsbF8cm2hy9hKI8q-22" value="No" style="edgeLabel;html=1;align=center;verticalAlign=middle;resizable=0;points=[];" vertex="1" connectable="0" parent="lL_hGsbF8cm2hy9hKI8q-21">
          <mxGeometry x="-0.5102" y="1" relative="1" as="geometry">
            <mxPoint as="offset" />
          </mxGeometry>
        </mxCell>
        <mxCell id="lL_hGsbF8cm2hy9hKI8q-23" value="" style="edgeStyle=orthogonalEdgeStyle;rounded=0;orthogonalLoop=1;jettySize=auto;html=1;" edge="1" parent="1" source="lL_hGsbF8cm2hy9hKI8q-24" target="lL_hGsbF8cm2hy9hKI8q-16">
          <mxGeometry relative="1" as="geometry" />
        </mxCell>
        <mxCell id="lL_hGsbF8cm2hy9hKI8q-24" value="Config the same S3 bucket with&lt;div&gt;RKE local cluster&amp;nbsp;&lt;/div&gt;&lt;div&gt;and&lt;/div&gt;&lt;div&gt;Get Rancher backup file name&lt;/div&gt;" style="rounded=1;whiteSpace=wrap;html=1;absoluteArcSize=1;arcSize=14;strokeWidth=2;" vertex="1" parent="1">
          <mxGeometry x="190" y="847" width="200" height="68" as="geometry" />
        </mxCell>
        <mxCell id="lL_hGsbF8cm2hy9hKI8q-25" value="" style="edgeStyle=orthogonalEdgeStyle;rounded=0;orthogonalLoop=1;jettySize=auto;html=1;" edge="1" parent="1" source="lL_hGsbF8cm2hy9hKI8q-29" target="lL_hGsbF8cm2hy9hKI8q-30">
          <mxGeometry relative="1" as="geometry" />
        </mxCell>
        <mxCell id="lL_hGsbF8cm2hy9hKI8q-26" value="No" style="edgeLabel;html=1;align=center;verticalAlign=middle;resizable=0;points=[];" vertex="1" connectable="0" parent="lL_hGsbF8cm2hy9hKI8q-25">
          <mxGeometry x="-0.1275" y="-1" relative="1" as="geometry">
            <mxPoint as="offset" />
          </mxGeometry>
        </mxCell>
        <mxCell id="lL_hGsbF8cm2hy9hKI8q-27" value="" style="edgeStyle=orthogonalEdgeStyle;rounded=0;orthogonalLoop=1;jettySize=auto;html=1;" edge="1" parent="1" source="lL_hGsbF8cm2hy9hKI8q-29" target="lL_hGsbF8cm2hy9hKI8q-24">
          <mxGeometry relative="1" as="geometry" />
        </mxCell>
        <mxCell id="lL_hGsbF8cm2hy9hKI8q-28" value="Yes" style="edgeLabel;html=1;align=center;verticalAlign=middle;resizable=0;points=[];" vertex="1" connectable="0" parent="lL_hGsbF8cm2hy9hKI8q-27">
          <mxGeometry x="-0.0645" y="-1" relative="1" as="geometry">
            <mxPoint as="offset" />
          </mxGeometry>
        </mxCell>
        <mxCell id="lL_hGsbF8cm2hy9hKI8q-29" value="Rancher Backup&amp;nbsp;&lt;div&gt;Chart Installed&lt;/div&gt;" style="strokeWidth=2;html=1;shape=mxgraph.flowchart.decision;whiteSpace=wrap;" vertex="1" parent="1">
          <mxGeometry x="210.5" y="715" width="159" height="70" as="geometry" />
        </mxCell>
        <mxCell id="lL_hGsbF8cm2hy9hKI8q-30" value="Install Rancher Backup&lt;div&gt;Chart by Helm&lt;/div&gt;" style="rounded=1;whiteSpace=wrap;html=1;absoluteArcSize=1;arcSize=14;strokeWidth=2;" vertex="1" parent="1">
          <mxGeometry x="444" y="725" width="140" height="50" as="geometry" />
        </mxCell>
        <mxCell id="lL_hGsbF8cm2hy9hKI8q-31" value="" style="edgeStyle=orthogonalEdgeStyle;rounded=0;orthogonalLoop=1;jettySize=auto;html=1;" edge="1" parent="1" source="lL_hGsbF8cm2hy9hKI8q-33" target="lL_hGsbF8cm2hy9hKI8q-37">
          <mxGeometry relative="1" as="geometry" />
        </mxCell>
        <mxCell id="lL_hGsbF8cm2hy9hKI8q-32" value="Yes" style="edgeLabel;html=1;align=center;verticalAlign=middle;resizable=0;points=[];" vertex="1" connectable="0" parent="lL_hGsbF8cm2hy9hKI8q-31">
          <mxGeometry x="-0.0492" relative="1" as="geometry">
            <mxPoint as="offset" />
          </mxGeometry>
        </mxCell>
        <mxCell id="lL_hGsbF8cm2hy9hKI8q-33" value="Success" style="strokeWidth=2;html=1;shape=mxgraph.flowchart.decision;whiteSpace=wrap;" vertex="1" parent="1">
          <mxGeometry x="240" y="1068" width="100" height="70" as="geometry" />
        </mxCell>
        <mxCell id="lL_hGsbF8cm2hy9hKI8q-34" value="" style="edgeStyle=segmentEdgeStyle;endArrow=classic;html=1;curved=0;rounded=0;endSize=8;startSize=8;exitX=1;exitY=0.5;exitDx=0;exitDy=0;exitPerimeter=0;entryX=1;entryY=0.5;entryDx=0;entryDy=0;" edge="1" parent="1" source="lL_hGsbF8cm2hy9hKI8q-33" target="lL_hGsbF8cm2hy9hKI8q-16">
          <mxGeometry width="50" height="50" relative="1" as="geometry">
            <mxPoint x="379" y="1104" as="sourcePoint" />
            <mxPoint x="429" y="1054" as="targetPoint" />
            <Array as="points">
              <mxPoint x="465" y="1103" />
              <mxPoint x="465" y="995" />
            </Array>
          </mxGeometry>
        </mxCell>
        <mxCell id="lL_hGsbF8cm2hy9hKI8q-35" value="No" style="edgeLabel;html=1;align=center;verticalAlign=middle;resizable=0;points=[];" vertex="1" connectable="0" parent="lL_hGsbF8cm2hy9hKI8q-34">
          <mxGeometry x="0.1169" y="-3" relative="1" as="geometry">
            <mxPoint as="offset" />
          </mxGeometry>
        </mxCell>
        <mxCell id="lL_hGsbF8cm2hy9hKI8q-36" value="" style="edgeStyle=orthogonalEdgeStyle;rounded=0;orthogonalLoop=1;jettySize=auto;html=1;" edge="1" parent="1" source="lL_hGsbF8cm2hy9hKI8q-37" target="lL_hGsbF8cm2hy9hKI8q-39">
          <mxGeometry relative="1" as="geometry" />
        </mxCell>
        <mxCell id="lL_hGsbF8cm2hy9hKI8q-37" value="Scale down Rancher replicas&amp;nbsp;&lt;div&gt;on RKE local cluster&lt;/div&gt;" style="rounded=1;whiteSpace=wrap;html=1;absoluteArcSize=1;arcSize=14;strokeWidth=2;" vertex="1" parent="1">
          <mxGeometry x="190" y="1199" width="200" height="50" as="geometry" />
        </mxCell>
        <mxCell id="lL_hGsbF8cm2hy9hKI8q-38" value="" style="edgeStyle=orthogonalEdgeStyle;rounded=0;orthogonalLoop=1;jettySize=auto;html=1;" edge="1" parent="1" source="lL_hGsbF8cm2hy9hKI8q-39" target="lL_hGsbF8cm2hy9hKI8q-41">
          <mxGeometry relative="1" as="geometry" />
        </mxCell>
        <mxCell id="lL_hGsbF8cm2hy9hKI8q-39" value="Bring up Rancher&amp;nbsp;&lt;div&gt;on RKE2 local cluster&lt;/div&gt;" style="rounded=1;whiteSpace=wrap;html=1;absoluteArcSize=1;arcSize=14;strokeWidth=2;" vertex="1" parent="1">
          <mxGeometry x="190" y="1304" width="200" height="50" as="geometry" />
        </mxCell>
        <mxCell id="lL_hGsbF8cm2hy9hKI8q-40" value="" style="edgeStyle=orthogonalEdgeStyle;rounded=0;orthogonalLoop=1;jettySize=auto;html=1;" edge="1" parent="1" source="lL_hGsbF8cm2hy9hKI8q-41" target="lL_hGsbF8cm2hy9hKI8q-46">
          <mxGeometry relative="1" as="geometry" />
        </mxCell>
        <mxCell id="lL_hGsbF8cm2hy9hKI8q-41" value="Redirect F5 traffic to RKE2 local cluster nodes" style="rounded=1;whiteSpace=wrap;html=1;absoluteArcSize=1;arcSize=14;strokeWidth=2;" vertex="1" parent="1">
          <mxGeometry x="190" y="1409" width="200" height="50" as="geometry" />
        </mxCell>
        <mxCell id="lL_hGsbF8cm2hy9hKI8q-42" value="" style="edgeStyle=orthogonalEdgeStyle;rounded=0;orthogonalLoop=1;jettySize=auto;html=1;" edge="1" parent="1" source="lL_hGsbF8cm2hy9hKI8q-46" target="lL_hGsbF8cm2hy9hKI8q-47">
          <mxGeometry relative="1" as="geometry" />
        </mxCell>
        <mxCell id="lL_hGsbF8cm2hy9hKI8q-43" value="Yes" style="edgeLabel;html=1;align=center;verticalAlign=middle;resizable=0;points=[];" vertex="1" connectable="0" parent="lL_hGsbF8cm2hy9hKI8q-42">
          <mxGeometry x="-0.2113" y="1" relative="1" as="geometry">
            <mxPoint as="offset" />
          </mxGeometry>
        </mxCell>
        <mxCell id="lL_hGsbF8cm2hy9hKI8q-44" value="" style="edgeStyle=orthogonalEdgeStyle;rounded=0;orthogonalLoop=1;jettySize=auto;html=1;" edge="1" parent="1" source="lL_hGsbF8cm2hy9hKI8q-46" target="lL_hGsbF8cm2hy9hKI8q-49">
          <mxGeometry relative="1" as="geometry" />
        </mxCell>
        <mxCell id="lL_hGsbF8cm2hy9hKI8q-45" value="No" style="edgeLabel;html=1;align=center;verticalAlign=middle;resizable=0;points=[];" vertex="1" connectable="0" parent="lL_hGsbF8cm2hy9hKI8q-44">
          <mxGeometry x="-0.3846" y="-1" relative="1" as="geometry">
            <mxPoint as="offset" />
          </mxGeometry>
        </mxCell>
        <mxCell id="lL_hGsbF8cm2hy9hKI8q-46" value="Is&lt;div&gt;Rancher&lt;/div&gt;&lt;div&gt;active&lt;/div&gt;" style="strokeWidth=2;html=1;shape=mxgraph.flowchart.decision;whiteSpace=wrap;" vertex="1" parent="1">
          <mxGeometry x="240" y="1502" width="100" height="70" as="geometry" />
        </mxCell>
        <mxCell id="lL_hGsbF8cm2hy9hKI8q-47" value="&lt;div&gt;Migrate&lt;/div&gt;&lt;div&gt;Rancher&lt;/div&gt;&lt;div&gt;Complete&lt;/div&gt;" style="strokeWidth=2;html=1;shape=mxgraph.flowchart.terminator;whiteSpace=wrap;fillColor=light-dark(#D4D4D4,var(--ge-dark-color, #121212));" vertex="1" parent="1">
          <mxGeometry x="240" y="1630" width="100" height="60" as="geometry" />
        </mxCell>
        <mxCell id="lL_hGsbF8cm2hy9hKI8q-48" value="" style="edgeStyle=orthogonalEdgeStyle;rounded=0;orthogonalLoop=1;jettySize=auto;html=1;" edge="1" parent="1" source="lL_hGsbF8cm2hy9hKI8q-49" target="lL_hGsbF8cm2hy9hKI8q-51">
          <mxGeometry relative="1" as="geometry" />
        </mxCell>
        <mxCell id="lL_hGsbF8cm2hy9hKI8q-49" value="Scale down Rancher replicas&amp;nbsp;&lt;div&gt;on RKE2 local cluster&lt;/div&gt;" style="rounded=1;whiteSpace=wrap;html=1;absoluteArcSize=1;arcSize=14;strokeWidth=2;fillColor=light-dark(#FFCCCC,var(--ge-dark-color, #121212));" vertex="1" parent="1">
          <mxGeometry x="418" y="1512" width="182" height="50" as="geometry" />
        </mxCell>
        <mxCell id="lL_hGsbF8cm2hy9hKI8q-50" value="" style="edgeStyle=orthogonalEdgeStyle;rounded=0;orthogonalLoop=1;jettySize=auto;html=1;" edge="1" parent="1" source="lL_hGsbF8cm2hy9hKI8q-51" target="lL_hGsbF8cm2hy9hKI8q-52">
          <mxGeometry relative="1" as="geometry" />
        </mxCell>
        <mxCell id="lL_hGsbF8cm2hy9hKI8q-51" value="Scale Rancher replicas back&amp;nbsp;&lt;div&gt;on RKE local cluster&lt;/div&gt;" style="rounded=1;whiteSpace=wrap;html=1;absoluteArcSize=1;arcSize=14;strokeWidth=2;fillColor=light-dark(#FFCCCC,var(--ge-dark-color, #121212));" vertex="1" parent="1">
          <mxGeometry x="418" y="1609" width="182" height="50" as="geometry" />
        </mxCell>
        <mxCell id="lL_hGsbF8cm2hy9hKI8q-52" value="Redirect F5 traffic to RKE local cluster nodes" style="rounded=1;whiteSpace=wrap;html=1;absoluteArcSize=1;arcSize=14;strokeWidth=2;fillColor=light-dark(#FFCCCC,var(--ge-dark-color, #121212));" vertex="1" parent="1">
          <mxGeometry x="409" y="1701" width="200" height="50" as="geometry" />
        </mxCell>
      </root>
    </mxGraphModel>
  </diagram>
</mxfile>
